<svg xmlns="http://www.w3.org/2000/svg" width="764" height="64" viewBox="0 0 764 64"><defs><linearGradient id="a" x1="50%" x2="50%" y1="0%" y2="99.3%"><stop stop-color="#EBEBEB" offset="0%"/><stop stop-color="#EBEBEB" stop-opacity="0" offset="100%"/></linearGradient></defs><g fill="none" fill-rule="evenodd"><path fill="url(#a)" d="M27.923 25h707.154L743 64H20z"/><path fill="#E6E6E6" d="M0 27C132.599 11 261.932 3 388 3c126.068 0 251.401 8 376 24l-24 22C628.558 35.667 511.225 29 388 29S143.442 35.667 24 49L0 27z"/><path fill="#D9D9D9" d="M0 24C132.924 8 262.258 0 388 0c125.742 0 251.076 8 376 24v3C642.351 11.667 517.018 4 388 4S129.649 11.667 0 27v-3z"/><path fill="#BCBCBC" d="M364.521 47.293c.11.703.332 1.196.666 1.48.334.283.813.424 1.438.424.676 0 1.21-.263 1.603-.79.392-.528.592-1.26.6-2.198h-3.357v-.926h3.357c0-.926-.202-1.658-.606-2.197-.405-.54-.97-.809-1.697-.809-.586 0-1.042.153-1.368.457-.326.305-.538.797-.636 1.477h-1.13c.09-.895.408-1.595.955-2.1.547-.507 1.273-.76 2.18-.76.687 0 1.291.164 1.813.49.521.326.922.79 1.201 1.394.28.604.419 1.298.419 2.083v.85c0 .785-.139 1.478-.416 2.08-.277.602-.669 1.064-1.175 1.386-.506.322-1.087.483-1.743.483-.93 0-1.675-.245-2.235-.735-.56-.49-.894-1.187-1-2.089h1.131zm9.3-1.125h-1.038V50h-1.125v-8.531h1.125v3.761h.88l2.982-3.761h1.4l-3.258 4.136L378.285 50h-1.377l-3.088-3.832zm6.62.492V50h-1.125v-8.531h3.147c.933 0 1.665.238 2.194.715.53.476.794 1.107.794 1.892 0 .828-.259 1.466-.776 1.913-.518.448-1.259.671-2.224.671h-2.01zm0-.92h2.022c.601 0 1.062-.141 1.383-.425.32-.283.48-.692.48-1.227 0-.508-.16-.914-.48-1.219-.32-.305-.76-.463-1.319-.474h-2.086v3.345zm10.348 2.033h-3.574L386.412 50h-1.16l3.258-8.531h.984L392.758 50h-1.154l-.815-2.227zm-3.234-.925h2.9l-1.453-3.99-1.447 3.99zM400.463 50h-1.131v-3.943h-4.3V50h-1.126v-8.531h1.125v3.668h4.301v-3.668h1.13V50z"/></g></svg>